<?xml version="1.0" standalone="no"?>
<!DOCTYPE svg PUBLIC "-//W3C//DTD SVG 20010904//EN"
 "http://www.w3.org/TR/2001/REC-SVG-20010904/DTD/svg10.dtd">
<svg version="1.0" xmlns="http://www.w3.org/2000/svg"
 width="32.000000pt" height="32.000000pt" viewBox="0 0 32.000000 32.000000"
 preserveAspectRatio="xMidYMid meet">

<g transform="translate(0.000000,32.000000) scale(0.100000,-0.100000)"
fill="#000000" stroke="none">
<path d="M101 252 c-8 -16 -6 -25 9 -44 17 -20 21 -21 30 -8 15 22 8 64 -12
68 -9 2 -21 -6 -27 -16z"/>
<path d="M182 253 c-12 -23 3 -63 22 -63 17 0 31 42 22 65 -7 20 -33 19 -44
-2z"/>
<path d="M49 174 c-9 -11 -10 -20 -3 -32 16 -25 32 -25 44 -2 22 41 -12 69
-41 34z"/>
<path d="M231 166 c-14 -26 -8 -46 14 -46 18 0 38 37 31 56 -8 22 -31 17 -45
-10z"/>
<path d="M111 116 c-18 -19 -31 -39 -27 -44 8 -13 139 -12 148 1 7 11 -59 76
-78 77 -5 0 -25 -15 -43 -34z"/>
</g>
</svg>
